# xmcd
#
# Track frame offsets:
#	150
#	23929
#	41905
#	59752
#	79325
#	104423
#	121688
#	137241
#	155409
#	172711
#	193003
#	211506
#	231145
#	248367
#	262777
#	283453
#
# Disc length: 4001 seconds
#
# Revision: 1
# Processed by: cddbd v1.4PL0 Copyright (c) Steve Scherf et al.
# Submitted via: EasyCDDAExtractor 6.0.0.1
#
DISCID=da0f9f10
DTITLE=Conan - MP3 -CD
DYEAR=2003
DGENRE=
TTITLE0=This War Is Over
TTITLE1=§Úªº¯µ±Kªá¶é-10-I`ve Never Bee
TTITLE2=1984-Girls Just Want to Have F
TTITLE3=ROXETTE_IT MUST HAVE BEEN
TTITLE4=I Miss You-Klymaxx
TTITLE5=Anyone Of Us-Stupid Mistake§Ú­
TTITLE6=A SHOULDER TO CRY ON
TTITLE7=JOYRIDE
TTITLE8=DANGEROUS
TTITLE9=VULNERABLE
TTITLE10=Torn
TTITLE11=QUEEN OF MY HEART
TTITLE12=15.Paint My Love - Michael Lea
TTITLE13=The Sign-Ace Of Base
TTITLE14=¤£­È±o
TTITLE15=¤ß°Ê
EXTD=
EXTT0=
EXTT1=
EXTT2=
EXTT3=
EXTT4=
EXTT5=
EXTT6=
EXTT7=
EXTT8=
EXTT9=
EXTT10=
EXTT11=
EXTT12=
EXTT13=
EXTT14=
EXTT15=
PLAYORDER=
